<svg xmlns="http://www.w3.org/2000/svg" viewBox="0 0 512 512" width="512" height="512">
  <circle cx="256" cy="256" r="256" fill="#0f172a"/>
  <path d="M256 80c13.3 0 24 10.7 24 24v40c39.6 4.6 71.4 33.7 80 72h24c13.3 0 24 10.7 24 24s-10.7 24-24 24h-24c-8.6 38.3-40.4 67.4-80 72v114.7l46.3-46.3c9.4-9.4 24.6-9.4 33.9 0s9.4 24.6 0 33.9l-87.3 87.3c-9.4 9.4-24.6 9.4-33.9 0l-87.3-87.3c-9.4-9.4-9.4-24.6 0-33.9s24.6-9.4 33.9 0l46.3 46.3V336c-39.6-4.6-71.4-33.7-80-72h-24c-13.3 0-24-10.7-24-24s10.7-24 24-24h24c8.6-38.3 40.4-67.4 80-72v-40c0-13.3 10.7-24 24-24zm0 136c-22.1 0-40 17.9-40 40s17.9 40 40 40 40-17.9 40-40-17.9-40-40-40z" fill="#38bdf8"/>
</svg>
